<?xml version="1.0" encoding="UTF-8" standalone="no"?>
<!-- Created with Inkscape (http://www.inkscape.org/) -->

<svg
   xmlns:dc="http://purl.org/dc/elements/1.1/"
   xmlns:cc="http://creativecommons.org/ns#"
   xmlns:rdf="http://www.w3.org/1999/02/22-rdf-syntax-ns#"
   xmlns:svg="http://www.w3.org/2000/svg"
   xmlns="http://www.w3.org/2000/svg"
   xmlns:sodipodi="http://sodipodi.sourceforge.net/DTD/sodipodi-0.dtd"
   xmlns:inkscape="http://www.inkscape.org/namespaces/inkscape"
   width="210mm"
   height="297mm"
   viewBox="0 0 210 297"
   version="1.1"
   id="svg8"
   inkscape:version="0.92.5 (2060ec1f9f, 2020-04-08)"
   sodipodi:docname="handedness.svg">
  <defs
     id="defs2" />
  <sodipodi:namedview
     id="base"
     pagecolor="#ffffff"
     bordercolor="#666666"
     borderopacity="1.0"
     inkscape:pageopacity="0.0"
     inkscape:pageshadow="2"
     inkscape:zoom="0.49497475"
     inkscape:cx="1186.5503"
     inkscape:cy="915.58269"
     inkscape:document-units="mm"
     inkscape:current-layer="layer1"
     showgrid="false"
     inkscape:window-width="2560"
     inkscape:window-height="1312"
     inkscape:window-x="1800"
     inkscape:window-y="54"
     inkscape:window-maximized="1"
     inkscape:snap-global="false" />
  <metadata
     id="metadata5">
    <rdf:RDF>
      <cc:Work
         rdf:about="">
        <dc:format>image/svg+xml</dc:format>
        <dc:type
           rdf:resource="http://purl.org/dc/dcmitype/StillImage" />
        <dc:title></dc:title>
      </cc:Work>
    </rdf:RDF>
  </metadata>
  <g
     inkscape:label="Calque 1"
     inkscape:groupmode="layer"
     id="layer1">
    <g
       id="g2404"
       inkscape:export-xdpi="192"
       inkscape:export-ydpi="192">
      <g
         style="stroke-width:1.29999995;stroke-miterlimit:4;stroke-dasharray:none"
         transform="matrix(1.3241831,0,0,0.63586245,387.47371,217.14886)"
         id="g2059">
        <path
           style="fill:none;fill-opacity:1;fill-rule:evenodd;stroke:#fc0000;stroke-width:4.91338587;stroke-linecap:round;stroke-miterlimit:4;stroke-dasharray:none;stroke-dashoffset:0;stroke-opacity:1"
           d="m 309.88098,473.94822 40,-10e-6 c 20.51587,-1e-5 41.03174,-183.07417 61.54761,-384.285693"
           id="path943"
           inkscape:connector-curvature="0"
           sodipodi:nodetypes="csc"
           transform="scale(0.26458333)" />
        <path
           inkscape:connector-curvature="0"
           style="fill:none;fill-opacity:1;fill-rule:evenodd;stroke:#fc0000;stroke-width:4.91338587;stroke-linecap:round;stroke-miterlimit:4;stroke-dasharray:none;stroke-dashoffset:0;stroke-opacity:1"
           d="m 226.78575,-294.62318 c 20.51587,0 41.03174,183.07418 61.54762,384.285697 13.84936,135.829113 27.69873,263.393013 41.5481,331.953203"
           id="path928"
           transform="scale(0.26458333)" />
        <path
           style="fill:none;fill-opacity:1;fill-rule:evenodd;stroke:#fc0000;stroke-width:4.91338587;stroke-linecap:round;stroke-miterlimit:4;stroke-dasharray:none;stroke-dashoffset:0;stroke-opacity:1"
           d="m 63.690516,473.94822 40.000004,-10e-6 c 20.51587,-1e-5 41.03174,-183.07417 61.54761,-384.285693 20.51588,-201.211517 41.03175,-384.285697 61.54762,-384.285697"
           id="path940"
           inkscape:connector-curvature="0"
           sodipodi:nodetypes="cssc"
           transform="scale(0.26458333)" />
        <path
           inkscape:connector-curvature="0"
           style="fill:none;fill-opacity:1;fill-rule:evenodd;stroke:#fc0000;stroke-width:4.91338587;stroke-linecap:round;stroke-miterlimit:4;stroke-dasharray:none;stroke-dashoffset:0;stroke-opacity:1"
           d="m -19.404714,-294.62318 c 20.5158723,0 41.031744,183.07418 61.547617,384.285697 C 55.992155,225.49049 69.841407,353.05339 83.690661,421.614"
           id="path926"
           transform="scale(0.26458333)" />
        <path
           style="fill:none;fill-opacity:1;fill-rule:evenodd;stroke:#fc0000;stroke-width:4.91338587;stroke-linecap:round;stroke-miterlimit:4;stroke-dasharray:none;stroke-dashoffset:0;stroke-opacity:1"
           d="m -182.49995,473.94822 40.00001,-10e-6 c 20.51587,-1e-5 41.03174,-183.07417 61.547612,-384.285693 20.515873,-201.211517 41.031742,-384.285697 61.547614,-384.285697"
           id="path937"
           inkscape:connector-curvature="0"
           sodipodi:nodetypes="cssc"
           transform="scale(0.26458333)" />
        <path
           inkscape:connector-curvature="0"
           style="fill:none;fill-opacity:1;fill-rule:evenodd;stroke:#fc0000;stroke-width:4.91338587;stroke-linecap:round;stroke-miterlimit:4;stroke-dasharray:none;stroke-dashoffset:0;stroke-opacity:1"
           d="m -265.59518,-294.62318 c 20.51588,0 41.03175,183.07418 61.54762,384.285697 13.84937,135.829113 27.69874,263.393013 41.54811,331.953203"
           id="path924"
           transform="scale(0.26458333)" />
        <path
           style="fill:none;fill-opacity:1;fill-rule:evenodd;stroke:#fc0000;stroke-width:4.91338587;stroke-linecap:round;stroke-miterlimit:4;stroke-dasharray:none;stroke-dashoffset:0;stroke-opacity:1"
           d="m -428.69042,473.94822 40.00003,-10e-6 c 20.51585,-1e-5 41.03173,-183.07417 61.5476,-384.285693 20.51587,-201.211517 41.03174,-384.285697 61.54761,-384.285697"
           id="path934"
           inkscape:connector-curvature="0"
           sodipodi:nodetypes="cssc"
           transform="scale(0.26458333)" />
        <path
           inkscape:connector-curvature="0"
           style="fill:none;fill-opacity:1;fill-rule:evenodd;stroke:#fc0000;stroke-width:4.91338587;stroke-linecap:round;stroke-miterlimit:4;stroke-dasharray:none;stroke-dashoffset:0;stroke-opacity:1"
           d="m -511.78563,-294.62318 c 20.51588,0 41.03176,183.07418 61.54761,384.285697 13.84923,135.827743 27.69847,263.390453 41.5477,331.951133"
           id="path922"
           transform="scale(0.26458333)" />
        <path
           style="fill:none;fill-opacity:1;fill-rule:evenodd;stroke:#fc0000;stroke-width:4.91338587;stroke-linecap:round;stroke-miterlimit:4;stroke-dasharray:none;stroke-dashoffset:0;stroke-opacity:1"
           d="m -674.88091,473.94822 40.00004,-10e-6 c 20.51588,-1e-5 41.03176,-183.07417 61.54764,-384.285693 20.51584,-201.211517 41.03172,-384.285697 61.5476,-384.285697"
           id="path931"
           inkscape:connector-curvature="0"
           sodipodi:nodetypes="cssc"
           transform="scale(0.26458333)" />
        <path
           inkscape:connector-curvature="0"
           style="fill:none;fill-opacity:1;fill-rule:evenodd;stroke:#fc0000;stroke-width:4.91338587;stroke-linecap:round;stroke-miterlimit:4;stroke-dasharray:none;stroke-dashoffset:0;stroke-opacity:1"
           d="m -757.97608,-294.62318 c 20.51584,0 41.03172,183.07418 61.5476,384.285697 13.84938,135.829113 27.69876,263.393013 41.54812,331.953203"
           id="path920"
           transform="scale(0.26458333)" />
        <path
           style="fill:none;fill-opacity:1;fill-rule:evenodd;stroke:#fc0000;stroke-width:4.91338587;stroke-linecap:round;stroke-miterlimit:4;stroke-dasharray:none;stroke-dashoffset:0;stroke-opacity:1"
           d="m -921.07136,473.94822 h 40.00003 c 20.51588,0 41.03176,-183.07418 61.5476,-384.285702 20.51588,-201.211518 41.03176,-384.285698 61.54764,-384.285698"
           id="path918"
           inkscape:connector-curvature="0"
           sodipodi:nodetypes="cssc"
           transform="scale(0.26458333)" />
        <path
           inkscape:connector-curvature="0"
           style="fill:none;fill-opacity:1;fill-rule:evenodd;stroke:#fc0000;stroke-width:4.91338587;stroke-linecap:round;stroke-miterlimit:4;stroke-dasharray:none;stroke-dashoffset:0;stroke-opacity:1"
           d="m -1004.1666,-294.62318 c 20.5159,0 41.03178,183.07418 61.54766,384.285698 13.84924,135.827972 27.69849,263.390882 41.54774,331.951482"
           id="path916"
           transform="scale(0.26458333)" />
        <path
           inkscape:connector-curvature="0"
           style="fill:none;fill-opacity:1;fill-rule:evenodd;stroke:#fc0000;stroke-width:4.91338587;stroke-linecap:round;stroke-miterlimit:4;stroke-dasharray:none;stroke-dashoffset:0;stroke-opacity:1"
           d="m -1065.7142,89.662518 c 20.5159,-201.211518 41.0318,-384.285698 61.5476,-384.285698"
           id="path838"
           transform="scale(0.26458333)" />
        <g
           id="g869"
           style="stroke:#fc0000;stroke-width:1.29999995;stroke-miterlimit:4;stroke-dasharray:none;stroke-opacity:1">
          <path
             transform="scale(0.26458333)"
             id="path858"
             d="m 206.78591,-242.28745 c 13.84915,68.56096 27.6983,196.12299 41.54745,331.949968 20.51588,201.211522 41.03174,384.285702 61.54762,384.285702 m 0,0 c 20.51587,0 41.03174,-183.07418 61.5476,-384.285702"
             style="fill:none;fill-opacity:1;fill-rule:evenodd;stroke:#fc0000;stroke-width:4.91338587;stroke-linecap:round;stroke-miterlimit:4;stroke-dasharray:none;stroke-dashoffset:0;stroke-opacity:1"
             inkscape:connector-curvature="0"
             sodipodi:nodetypes="csccc" />
          <path
             sodipodi:nodetypes="csccssc"
             inkscape:connector-curvature="0"
             transform="scale(0.26458333)"
             id="path856"
             d="m -39.404497,-242.28718 c 13.849133,68.56103 27.698266,196.1229 41.5474008,331.949698 C 22.658772,290.87404 43.174643,473.94822 63.690516,473.94822 m 0,0 c 20.515873,0 41.031744,-183.07418 61.547614,-384.285702 C 145.754,-111.549 166.26988,-294.62318 186.78575,-294.62318 h 40"
             style="fill:none;fill-opacity:1;fill-rule:evenodd;stroke:#fc0000;stroke-width:4.91338587;stroke-linecap:round;stroke-miterlimit:4;stroke-dasharray:none;stroke-dashoffset:0;stroke-opacity:1" />
          <path
             sodipodi:nodetypes="csccssc"
             inkscape:connector-curvature="0"
             transform="scale(0.26458333)"
             id="path854"
             d="m -285.59502,-242.28745 c 13.84915,68.56096 27.6983,196.12299 41.54746,331.949968 20.51587,201.211522 41.03174,384.285702 61.54761,384.285702 m 0,0 c 20.51587,0 41.03175,-183.07418 61.54762,-384.285702 20.51587,-201.211518 41.03174,-384.285698 61.547617,-384.285698 h 39.999999"
             style="fill:none;fill-opacity:1;fill-rule:evenodd;stroke:#fc0000;stroke-width:4.91338587;stroke-linecap:round;stroke-miterlimit:4;stroke-dasharray:none;stroke-dashoffset:0;stroke-opacity:1" />
          <path
             sodipodi:nodetypes="csccssc"
             inkscape:connector-curvature="0"
             transform="scale(0.26458333)"
             id="path852"
             d="m -531.78544,-242.28718 c 13.84914,68.56103 27.69827,196.1229 41.54738,331.949698 20.51588,201.211522 41.03176,384.285702 61.54764,384.285702 m 0,0 c 20.51588,0 41.03176,-183.07418 61.54763,-384.285702 20.51587,-201.211518 41.03174,-384.285698 61.54761,-384.285698 h 40"
             style="fill:none;fill-opacity:1;fill-rule:evenodd;stroke:#fc0000;stroke-width:4.91338587;stroke-linecap:round;stroke-miterlimit:4;stroke-dasharray:none;stroke-dashoffset:0;stroke-opacity:1" />
          <path
             sodipodi:nodetypes="csccssc"
             inkscape:connector-curvature="0"
             transform="scale(0.26458333)"
             id="path850"
             d="m -777.97597,-242.28745 c 13.84915,68.56096 27.6983,196.12299 41.54746,331.949968 20.51588,201.211522 41.03176,384.285702 61.5476,384.285702 m 0,0 c 20.51588,0 41.03176,-183.07418 61.54764,-384.285702 20.51585,-201.211518 41.03173,-384.285698 61.54761,-384.285698 h 40.00002"
             style="fill:none;fill-opacity:1;fill-rule:evenodd;stroke:#fc0000;stroke-width:4.91338587;stroke-linecap:round;stroke-miterlimit:4;stroke-dasharray:none;stroke-dashoffset:0;stroke-opacity:1" />
          <path
             sodipodi:nodetypes="csccssc"
             inkscape:connector-curvature="0"
             transform="scale(0.26458333)"
             id="path848"
             d="m -1024.1664,-242.28718 c 13.8492,68.56103 27.6983,196.1229 41.54744,331.949698 20.51584,201.211522 41.03172,384.285702 61.5476,384.285702 m 0,0 c 20.51588,0 41.03176,-183.07418 61.54761,-384.285702 20.51588,-201.211518 41.03176,-384.285698 61.54764,-384.285698 h 40.00001"
             style="fill:none;fill-opacity:1;fill-rule:evenodd;stroke:#fc0000;stroke-width:4.91338587;stroke-linecap:round;stroke-miterlimit:4;stroke-dasharray:none;stroke-dashoffset:0;stroke-opacity:1" />
          <path
             sodipodi:nodetypes="csc"
             inkscape:connector-curvature="0"
             transform="scale(0.26458333)"
             id="path843"
             d="m -1105.7142,89.662518 c 20.5159,-201.211518 41.0318,-384.285698 61.5476,-384.285698 h 40"
             style="fill:none;fill-opacity:1;fill-rule:evenodd;stroke:#fc0000;stroke-width:4.91338587;stroke-linecap:round;stroke-miterlimit:4;stroke-dasharray:none;stroke-dashoffset:0;stroke-opacity:1" />
        </g>
        <path
           style="fill:none;stroke:#ff0000;stroke-width:1.29999995;stroke-linecap:butt;stroke-linejoin:miter;stroke-miterlimit:4;stroke-dasharray:none;stroke-opacity:1"
           d="m -281.97021,23.723207 h -10.58334"
           id="path965"
           inkscape:connector-curvature="0" />
        <path
           style="fill:none;stroke:#ff0000;stroke-width:1.29999995;stroke-linecap:butt;stroke-linejoin:miter;stroke-miterlimit:4;stroke-dasharray:none;stroke-opacity:1"
           d="M 98.273811,23.723207 H 108.85714"
           id="path967"
           inkscape:connector-curvature="0" />
      </g>
      <g
         id="g2362">
        <g
           id="g2345">
          <path
             inkscape:connector-curvature="0"
             id="path1907"
             d="m 0.73617181,231.42047 c 0,-0.84606 3.49039429,-16.70042 5.78022099,-26.2553 5.1920072,-21.66511 9.6897472,-33.83361 13.5518352,-36.66401 0.783643,-0.57431 0.961974,-0.58882 7.235638,-0.58882 h 6.4322 l -0.954407,0.7811 c -3.647494,2.98527 -8.099268,15.39816 -13.252665,36.95241 -1.826655,7.64008 -5.779556,25.48349 -5.779556,26.08892 0,0.28666 -1.155687,0.34857 -6.5066505,0.34857 H 0.73617181 Z"
             style="fill:#ff2121;fill-opacity:1;fill-rule:evenodd;stroke:none;stroke-width:0;stroke-linecap:round;stroke-linejoin:round;stroke-miterlimit:4;stroke-dasharray:none;stroke-dashoffset:0;stroke-opacity:1" />
          <path
             inkscape:connector-curvature="0"
             id="path1911"
             d="m 66.803449,296.51606 c 0,-0.12834 0.207513,-0.29492 0.461143,-0.37019 0.73699,-0.21872 2.914755,-3.61524 4.290525,-6.69166 1.663837,-3.72058 3.880331,-10.28797 5.735337,-16.9936 2.649832,-9.57884 4.415539,-17.2355 11.805548,-51.1926 7.175955,-32.97354 12.741308,-49.94923 17.284798,-52.72287 1.02046,-0.62296 1.1335,-0.6328 7.2668,-0.6328 h 6.23022 l -0.9548,0.90127 c -4.96754,4.68907 -9.7815,20.44886 -18.33516,60.02513 -9.949255,46.03341 -14.534107,61.55149 -19.630218,66.44126 l -1.391197,1.33486 -6.381496,0.0673 c -3.889157,0.041 -6.3815,-0.0239 -6.3815,-0.16607 z"
             style="fill:#ff2121;fill-opacity:1;fill-rule:evenodd;stroke:none;stroke-width:0;stroke-linecap:round;stroke-linejoin:round;stroke-miterlimit:4;stroke-dasharray:none;stroke-dashoffset:0;stroke-opacity:1" />
          <path
             inkscape:connector-curvature="0"
             id="path1913"
             d="m 154.2119,295.40778 c 5.0716,-5.31949 9.5852,-20.71469 19.44639,-66.3287 8.74076,-40.43132 13.71835,-56.45527 18.75786,-60.38564 l 1.00153,-0.7811 h 6.26373 c 3.44505,0 6.26373,0.0338 6.26373,0.075 0,0.0413 -0.4262,0.50092 -0.9471,1.02145 -4.96925,4.96569 -9.84613,21.16081 -18.55954,61.63249 -5.69741,26.46305 -8.78231,39.1607 -11.82418,48.66902 -3.01028,9.40958 -5.94608,15.38756 -8.24653,16.79191 -1.01986,0.62259 -1.13653,0.63281 -7.22894,0.63281 h -6.19236 z"
             style="fill:#ff2121;fill-opacity:1;fill-rule:evenodd;stroke:none;stroke-width:0;stroke-linecap:round;stroke-linejoin:round;stroke-miterlimit:4;stroke-dasharray:none;stroke-dashoffset:0;stroke-opacity:1" />
          <path
             inkscape:connector-curvature="0"
             id="path1915"
             d="m 240.31036,295.59153 c 0.64818,-0.62892 1.82734,-2.38641 2.62037,-3.90554 4.53975,-8.69638 8.42976,-22.96163 16.58082,-60.80435 8.06631,-37.44925 12.65241,-53.40294 17.23629,-59.96005 2.18671,-3.128 1.81895,-3.00925 9.31953,-3.00925 h 6.43218 l -0.95438,0.7811 c -1.98749,1.62664 -4.72935,7.24843 -7.23827,14.84105 -2.90975,8.80561 -6.06235,21.52684 -11.0487,44.58323 -8.19801,37.90686 -11.58717,50.87556 -15.85932,60.68607 -1.51615,3.48167 -3.37889,6.36065 -4.7796,7.38719 -0.70686,0.51803 -1.04724,0.54406 -7.11491,0.54406 h -6.37253 z"
             style="fill:#ff2121;fill-opacity:1;fill-rule:evenodd;stroke:none;stroke-width:0;stroke-linecap:round;stroke-linejoin:round;stroke-miterlimit:4;stroke-dasharray:none;stroke-dashoffset:0;stroke-opacity:1" />
          <path
             inkscape:connector-curvature="0"
             id="path1917"
             d="m 325.56695,296.51606 c 0,-0.12834 0.20751,-0.29492 0.46114,-0.37019 0.73699,-0.21872 2.91476,-3.61524 4.29052,-6.69166 1.66385,-3.72058 3.88034,-10.28797 5.73534,-16.9936 2.64984,-9.57884 4.41554,-17.2355 11.80555,-51.1926 7.17596,-32.97354 12.74131,-49.94923 17.2848,-52.72287 1.02046,-0.62296 1.1335,-0.6328 7.2668,-0.6328 h 6.23022 l -0.9548,0.90127 c -4.96754,4.68907 -9.7815,20.44886 -18.33516,60.02513 -9.94925,46.03341 -14.53411,61.55149 -19.63022,66.44126 l -1.39119,1.33486 -6.3815,0.0673 c -3.88916,0.041 -6.3815,-0.0239 -6.3815,-0.16607 z"
             style="fill:#ff2121;fill-opacity:1;fill-rule:evenodd;stroke:none;stroke-width:0;stroke-linecap:round;stroke-linejoin:round;stroke-miterlimit:4;stroke-dasharray:none;stroke-dashoffset:0;stroke-opacity:1" />
          <path
             inkscape:connector-curvature="0"
             id="path1919"
             d="m 412.9754,295.40778 c 5.0716,-5.31949 9.5852,-20.71469 19.44639,-66.3287 8.74076,-40.43132 13.71835,-56.45527 18.75786,-60.38564 l 1.00153,-0.7811 h 6.26373 c 3.44505,0 6.26373,0.0338 6.26373,0.075 0,0.0413 -0.4262,0.50092 -0.9471,1.02145 -4.96925,4.96569 -9.84613,21.16081 -18.55954,61.63249 -5.69741,26.46305 -8.78231,39.1607 -11.82418,48.66902 -3.01028,9.40958 -5.94608,15.38756 -8.24653,16.79191 -1.01986,0.62259 -1.13653,0.63281 -7.22894,0.63281 h -6.19236 z"
             style="fill:#ff2121;fill-opacity:1;fill-rule:evenodd;stroke:none;stroke-width:0;stroke-linecap:round;stroke-linejoin:round;stroke-miterlimit:4;stroke-dasharray:none;stroke-dashoffset:0;stroke-opacity:1" />
          <path
             inkscape:connector-curvature="0"
             id="path1921"
             d="m 499.07386,295.59153 c 4.67924,-4.54023 10.19226,-22.6342 17.97716,-59.00179 l 0.86174,-4.02571 h 6.43158 6.43158 v 0.67249 c 0,1.9609 -6.58783,30.28603 -9.29038,39.94511 -3.55839,12.71788 -7.11601,20.82046 -10.10276,23.00935 -0.70686,0.51803 -1.04723,0.54406 -7.11491,0.54406 h -6.37253 z"
             style="fill:#ff0000;fill-opacity:1;fill-rule:evenodd;stroke:none;stroke-width:0;stroke-linecap:round;stroke-linejoin:round;stroke-miterlimit:4;stroke-dasharray:none;stroke-dashoffset:0;stroke-opacity:1" />
        </g>
        <g
           id="g2336"
           style="fill:#640000;fill-opacity:1">
          <path
             inkscape:connector-curvature="0"
             id="path1923"
             d="m 63.65782,296.31149 c -4.272559,-2.26705 -9.075064,-15.44416 -15.087021,-41.39576 -0.964613,-4.16391 -3.454501,-15.41186 -5.533083,-24.99545 -5.840735,-26.9295 -8.641403,-38.0777 -12.105941,-48.18834 -2.039777,-5.95274 -2.032174,-6.04376 0.872459,-10.45483 1.69422,-2.57295 2.899832,-3.52073 4.178705,-3.28508 2.125464,0.39166 5.043077,5.22169 7.74197,12.81665 3.744995,10.5388 6.767747,22.68491 14.076407,56.56216 5.476307,25.38389 9.564214,41.13484 12.731737,49.0561 0.717544,1.79441 0.703628,1.88307 -0.733532,4.67365 -1.426779,2.77042 -3.701232,5.4187 -4.784388,5.57075 -0.295375,0.0415 -0.906166,-0.12047 -1.357313,-0.35985 z"
             style="fill:#640000;fill-opacity:1;fill-rule:evenodd;stroke:none;stroke-width:0;stroke-linecap:round;stroke-linejoin:round;stroke-miterlimit:4;stroke-dasharray:none;stroke-dashoffset:0;stroke-opacity:1" />
          <path
             inkscape:connector-curvature="0"
             id="path1925"
             d="m 149.46232,296.06444 c -2.64681,-1.78493 -5.49889,-7.86458 -8.81505,-18.79072 -3.04749,-10.04092 -5.23486,-19.25697 -12.77918,-53.84265 -4.86601,-22.30735 -7.77155,-33.55892 -11.0612,-42.83385 l -1.51064,-4.25914 1.23979,-2.4704 c 2.30023,-4.58343 4.28712,-6.42721 6.13323,-5.69149 3.9333,1.56751 8.76273,14.26442 14.43489,37.95034 0.9655,4.03172 3.68059,16.19898 6.03355,27.03835 6.62291,30.5098 9.59931,42.21764 13.29756,52.30679 l 1.0251,2.79657 -1.04418,2.13041 c -1.93556,3.94907 -4.01882,6.33639 -5.52936,6.33639 -0.23656,0 -0.87758,-0.30177 -1.42451,-0.6706 z"
             style="fill:#640000;fill-opacity:1;fill-rule:evenodd;stroke:none;stroke-width:0;stroke-linecap:round;stroke-linejoin:round;stroke-miterlimit:4;stroke-dasharray:none;stroke-dashoffset:0;stroke-opacity:1" />
          <path
             inkscape:connector-curvature="0"
             id="path1927"
             d="m 235.56172,295.95393 c -2.82845,-2.21787 -5.93313,-9.13629 -9.31949,-20.76742 -2.63215,-9.04065 -5.35015,-20.59427 -11.29915,-48.03015 -5.18423,-23.9089 -8.44534,-36.75332 -11.67832,-45.99702 l -1.71333,-4.89874 1.4313,-2.77918 c 1.54303,-2.99614 3.76874,-5.44891 4.94451,-5.44891 4.35673,0 9.26495,12.28226 15.75134,39.4159 0.6952,2.90812 3.3009,14.64276 5.79046,26.07698 6.3606,29.2134 8.8101,39.00801 12.35045,49.38472 2.03086,5.9524 2.00105,6.30723 -0.88411,10.52323 -2.31987,3.38996 -3.53691,3.96083 -5.37366,2.52059 z"
             style="fill:#640000;fill-opacity:1;fill-rule:evenodd;stroke:none;stroke-width:0;stroke-linecap:round;stroke-linejoin:round;stroke-miterlimit:4;stroke-dasharray:none;stroke-dashoffset:0;stroke-opacity:1" />
          <path
             inkscape:connector-curvature="0"
             id="path1929"
             d="m 322.42132,296.31149 c -4.27256,-2.26705 -9.07506,-15.44416 -15.08702,-41.39576 -0.96461,-4.16391 -3.4545,-15.41186 -5.53308,-24.99545 -5.84074,-26.9295 -8.6414,-38.0777 -12.10593,-48.18834 -2.03978,-5.95274 -2.03219,-6.04376 0.87243,-10.45483 1.69424,-2.57295 2.89985,-3.52073 4.17871,-3.28508 2.12547,0.39166 5.04309,5.22169 7.74198,12.81665 3.74499,10.5388 6.76775,22.68491 14.07641,56.56216 5.4763,25.38389 9.56421,41.13484 12.73173,49.0561 0.71755,1.79441 0.70363,1.88307 -0.73353,4.67365 -1.42678,2.77042 -3.70123,5.4187 -4.78439,5.57075 -0.29537,0.0415 -0.90616,-0.12047 -1.35731,-0.35985 z"
             style="fill:#640000;fill-opacity:1;fill-rule:evenodd;stroke:none;stroke-width:0;stroke-linecap:round;stroke-linejoin:round;stroke-miterlimit:4;stroke-dasharray:none;stroke-dashoffset:0;stroke-opacity:1" />
          <path
             inkscape:connector-curvature="0"
             id="path1931"
             d="m 408.22582,296.06444 c -2.64681,-1.78493 -5.49888,-7.86458 -8.81505,-18.79072 -3.04749,-10.04092 -5.23486,-19.25697 -12.77918,-53.84265 -4.86601,-22.30735 -7.77155,-33.55892 -11.0612,-42.83385 l -1.51064,-4.25914 1.23979,-2.4704 c 2.30024,-4.58343 4.28712,-6.42721 6.13323,-5.69149 3.9333,1.56751 8.76273,14.26442 14.43489,37.95034 0.9655,4.03172 3.68059,16.19898 6.03355,27.03835 6.62291,30.5098 9.59931,42.21764 13.29756,52.30679 l 1.0251,2.79657 -1.04418,2.13041 c -1.93556,3.94907 -4.01882,6.33639 -5.52936,6.33639 -0.23656,0 -0.87758,-0.30177 -1.42451,-0.6706 z"
             style="fill:#640000;fill-opacity:1;fill-rule:evenodd;stroke:none;stroke-width:0;stroke-linecap:round;stroke-linejoin:round;stroke-miterlimit:4;stroke-dasharray:none;stroke-dashoffset:0;stroke-opacity:1" />
          <path
             inkscape:connector-curvature="0"
             id="path1933"
             d="m 494.32522,295.95393 c -2.82845,-2.21787 -5.93313,-9.13629 -9.31948,-20.76742 -2.63215,-9.04065 -5.35016,-20.59427 -11.29916,-48.03015 -5.18423,-23.9089 -8.44534,-36.75332 -11.67832,-45.99702 l -1.71333,-4.89874 1.4313,-2.77918 c 1.54303,-2.99614 3.76874,-5.44891 4.94451,-5.44891 4.35673,0 9.26495,12.28226 15.75134,39.4159 0.6952,2.90812 3.3009,14.64276 5.79046,26.07698 6.3606,29.2134 8.8101,39.00801 12.35045,49.38472 2.03086,5.9524 2.00105,6.30723 -0.88411,10.52323 -2.31986,3.38996 -3.53691,3.96083 -5.37366,2.52059 z"
             style="fill:#640000;fill-opacity:1;fill-rule:evenodd;stroke:none;stroke-width:0;stroke-linecap:round;stroke-linejoin:round;stroke-miterlimit:4;stroke-dasharray:none;stroke-dashoffset:0;stroke-opacity:1" />
        </g>
      </g>
    </g>
    <g
       id="g2463"
       inkscape:export-xdpi="192"
       inkscape:export-ydpi="192">
      <g
         id="g2179"
         transform="matrix(-1.3241831,0,0,0.63586245,144.22605,74.273851)"
         style="stroke-width:1.29999995;stroke-miterlimit:4;stroke-dasharray:none;stroke:#0000ff;stroke-opacity:1">
        <path
           transform="scale(0.26458333)"
           sodipodi:nodetypes="csc"
           inkscape:connector-curvature="0"
           id="path2133"
           d="m 309.88098,473.94822 40,-10e-6 c 20.51587,-1e-5 41.03174,-183.07417 61.54761,-384.285693"
           style="fill:none;fill-opacity:1;fill-rule:evenodd;stroke:#0000ff;stroke-width:4.91338587;stroke-linecap:round;stroke-miterlimit:4;stroke-dasharray:none;stroke-dashoffset:0;stroke-opacity:1" />
        <path
           transform="scale(0.26458333)"
           id="path2135"
           d="m 226.78575,-294.62318 c 20.51587,0 41.03174,183.07418 61.54762,384.285697 13.84936,135.829113 27.69873,263.393013 41.5481,331.953203"
           style="fill:none;fill-opacity:1;fill-rule:evenodd;stroke:#0000ff;stroke-width:4.91338587;stroke-linecap:round;stroke-miterlimit:4;stroke-dasharray:none;stroke-dashoffset:0;stroke-opacity:1"
           inkscape:connector-curvature="0" />
        <path
           transform="scale(0.26458333)"
           sodipodi:nodetypes="cssc"
           inkscape:connector-curvature="0"
           id="path2137"
           d="m 63.690516,473.94822 40.000004,-10e-6 c 20.51587,-1e-5 41.03174,-183.07417 61.54761,-384.285693 20.51588,-201.211517 41.03175,-384.285697 61.54762,-384.285697"
           style="fill:none;fill-opacity:1;fill-rule:evenodd;stroke:#0000ff;stroke-width:4.91338587;stroke-linecap:round;stroke-miterlimit:4;stroke-dasharray:none;stroke-dashoffset:0;stroke-opacity:1" />
        <path
           transform="scale(0.26458333)"
           id="path2139"
           d="m -19.404714,-294.62318 c 20.5158723,0 41.031744,183.07418 61.547617,384.285697 C 55.992155,225.49049 69.841407,353.05339 83.690661,421.614"
           style="fill:none;fill-opacity:1;fill-rule:evenodd;stroke:#0000ff;stroke-width:4.91338587;stroke-linecap:round;stroke-miterlimit:4;stroke-dasharray:none;stroke-dashoffset:0;stroke-opacity:1"
           inkscape:connector-curvature="0" />
        <path
           transform="scale(0.26458333)"
           sodipodi:nodetypes="cssc"
           inkscape:connector-curvature="0"
           id="path2141"
           d="m -182.49995,473.94822 40.00001,-10e-6 c 20.51587,-1e-5 41.03174,-183.07417 61.547612,-384.285693 20.515873,-201.211517 41.031742,-384.285697 61.547614,-384.285697"
           style="fill:none;fill-opacity:1;fill-rule:evenodd;stroke:#0000ff;stroke-width:4.91338587;stroke-linecap:round;stroke-miterlimit:4;stroke-dasharray:none;stroke-dashoffset:0;stroke-opacity:1" />
        <path
           transform="scale(0.26458333)"
           id="path2143"
           d="m -265.59518,-294.62318 c 20.51588,0 41.03175,183.07418 61.54762,384.285697 13.84937,135.829113 27.69874,263.393013 41.54811,331.953203"
           style="fill:none;fill-opacity:1;fill-rule:evenodd;stroke:#0000ff;stroke-width:4.91338587;stroke-linecap:round;stroke-miterlimit:4;stroke-dasharray:none;stroke-dashoffset:0;stroke-opacity:1"
           inkscape:connector-curvature="0" />
        <path
           transform="scale(0.26458333)"
           sodipodi:nodetypes="cssc"
           inkscape:connector-curvature="0"
           id="path2145"
           d="m -428.69042,473.94822 40.00003,-10e-6 c 20.51585,-1e-5 41.03173,-183.07417 61.5476,-384.285693 20.51587,-201.211517 41.03174,-384.285697 61.54761,-384.285697"
           style="fill:none;fill-opacity:1;fill-rule:evenodd;stroke:#0000ff;stroke-width:4.91338587;stroke-linecap:round;stroke-miterlimit:4;stroke-dasharray:none;stroke-dashoffset:0;stroke-opacity:1" />
        <path
           transform="scale(0.26458333)"
           id="path2147"
           d="m -511.78563,-294.62318 c 20.51588,0 41.03176,183.07418 61.54761,384.285697 13.84923,135.827743 27.69847,263.390453 41.5477,331.951133"
           style="fill:none;fill-opacity:1;fill-rule:evenodd;stroke:#0000ff;stroke-width:4.91338587;stroke-linecap:round;stroke-miterlimit:4;stroke-dasharray:none;stroke-dashoffset:0;stroke-opacity:1"
           inkscape:connector-curvature="0" />
        <path
           transform="scale(0.26458333)"
           sodipodi:nodetypes="cssc"
           inkscape:connector-curvature="0"
           id="path2149"
           d="m -674.88091,473.94822 40.00004,-10e-6 c 20.51588,-1e-5 41.03176,-183.07417 61.54764,-384.285693 20.51584,-201.211517 41.03172,-384.285697 61.5476,-384.285697"
           style="fill:none;fill-opacity:1;fill-rule:evenodd;stroke:#0000ff;stroke-width:4.91338587;stroke-linecap:round;stroke-miterlimit:4;stroke-dasharray:none;stroke-dashoffset:0;stroke-opacity:1" />
        <path
           transform="scale(0.26458333)"
           id="path2151"
           d="m -757.97608,-294.62318 c 20.51584,0 41.03172,183.07418 61.5476,384.285697 13.84938,135.829113 27.69876,263.393013 41.54812,331.953203"
           style="fill:none;fill-opacity:1;fill-rule:evenodd;stroke:#0000ff;stroke-width:4.91338587;stroke-linecap:round;stroke-miterlimit:4;stroke-dasharray:none;stroke-dashoffset:0;stroke-opacity:1"
           inkscape:connector-curvature="0" />
        <path
           transform="scale(0.26458333)"
           sodipodi:nodetypes="cssc"
           inkscape:connector-curvature="0"
           id="path2153"
           d="m -921.07136,473.94822 h 40.00003 c 20.51588,0 41.03176,-183.07418 61.5476,-384.285702 20.51588,-201.211518 41.03176,-384.285698 61.54764,-384.285698"
           style="fill:none;fill-opacity:1;fill-rule:evenodd;stroke:#0000ff;stroke-width:4.91338587;stroke-linecap:round;stroke-miterlimit:4;stroke-dasharray:none;stroke-dashoffset:0;stroke-opacity:1" />
        <path
           transform="scale(0.26458333)"
           id="path2155"
           d="m -1004.1666,-294.62318 c 20.5159,0 41.03178,183.07418 61.54766,384.285698 13.84924,135.827972 27.69849,263.390882 41.54774,331.951482"
           style="fill:none;fill-opacity:1;fill-rule:evenodd;stroke:#0000ff;stroke-width:4.91338587;stroke-linecap:round;stroke-miterlimit:4;stroke-dasharray:none;stroke-dashoffset:0;stroke-opacity:1"
           inkscape:connector-curvature="0" />
        <path
           transform="scale(0.26458333)"
           id="path2157"
           d="m -1065.7142,89.662518 c 20.5159,-201.211518 41.0318,-384.285698 61.5476,-384.285698"
           style="fill:none;fill-opacity:1;fill-rule:evenodd;stroke:#0000ff;stroke-width:4.91338587;stroke-linecap:round;stroke-miterlimit:4;stroke-dasharray:none;stroke-dashoffset:0;stroke-opacity:1"
           inkscape:connector-curvature="0" />
        <g
           style="stroke:#0000ff;stroke-width:1.29999995;stroke-miterlimit:4;stroke-dasharray:none;stroke-opacity:1"
           id="g2173">
          <path
             sodipodi:nodetypes="csccc"
             inkscape:connector-curvature="0"
             style="fill:none;fill-opacity:1;fill-rule:evenodd;stroke:#0000ff;stroke-width:4.91338587;stroke-linecap:round;stroke-miterlimit:4;stroke-dasharray:none;stroke-dashoffset:0;stroke-opacity:1"
             d="m 206.78591,-242.28745 c 13.84915,68.56096 27.6983,196.12299 41.54745,331.949968 20.51588,201.211522 41.03174,384.285702 61.54762,384.285702 m 0,0 c 20.51587,0 41.03174,-183.07418 61.5476,-384.285702"
             id="path2159"
             transform="scale(0.26458333)" />
          <path
             style="fill:none;fill-opacity:1;fill-rule:evenodd;stroke:#0000ff;stroke-width:4.91338587;stroke-linecap:round;stroke-miterlimit:4;stroke-dasharray:none;stroke-dashoffset:0;stroke-opacity:1"
             d="m -39.404497,-242.28718 c 13.849133,68.56103 27.698266,196.1229 41.5474008,331.949698 C 22.658772,290.87404 43.174643,473.94822 63.690516,473.94822 m 0,0 c 20.515873,0 41.031744,-183.07418 61.547614,-384.285702 C 145.754,-111.549 166.26988,-294.62318 186.78575,-294.62318 h 40"
             id="path2161"
             transform="scale(0.26458333)"
             inkscape:connector-curvature="0"
             sodipodi:nodetypes="csccssc" />
          <path
             style="fill:none;fill-opacity:1;fill-rule:evenodd;stroke:#0000ff;stroke-width:4.91338587;stroke-linecap:round;stroke-miterlimit:4;stroke-dasharray:none;stroke-dashoffset:0;stroke-opacity:1"
             d="m -285.59502,-242.28745 c 13.84915,68.56096 27.6983,196.12299 41.54746,331.949968 20.51587,201.211522 41.03174,384.285702 61.54761,384.285702 m 0,0 c 20.51587,0 41.03175,-183.07418 61.54762,-384.285702 20.51587,-201.211518 41.03174,-384.285698 61.547617,-384.285698 h 39.999999"
             id="path2163"
             transform="scale(0.26458333)"
             inkscape:connector-curvature="0"
             sodipodi:nodetypes="csccssc" />
          <path
             style="fill:none;fill-opacity:1;fill-rule:evenodd;stroke:#0000ff;stroke-width:4.91338587;stroke-linecap:round;stroke-miterlimit:4;stroke-dasharray:none;stroke-dashoffset:0;stroke-opacity:1"
             d="m -531.78544,-242.28718 c 13.84914,68.56103 27.69827,196.1229 41.54738,331.949698 20.51588,201.211522 41.03176,384.285702 61.54764,384.285702 m 0,0 c 20.51588,0 41.03176,-183.07418 61.54763,-384.285702 20.51587,-201.211518 41.03174,-384.285698 61.54761,-384.285698 h 40"
             id="path2165"
             transform="scale(0.26458333)"
             inkscape:connector-curvature="0"
             sodipodi:nodetypes="csccssc" />
          <path
             style="fill:none;fill-opacity:1;fill-rule:evenodd;stroke:#0000ff;stroke-width:4.91338587;stroke-linecap:round;stroke-miterlimit:4;stroke-dasharray:none;stroke-dashoffset:0;stroke-opacity:1"
             d="m -777.97597,-242.28745 c 13.84915,68.56096 27.6983,196.12299 41.54746,331.949968 20.51588,201.211522 41.03176,384.285702 61.5476,384.285702 m 0,0 c 20.51588,0 41.03176,-183.07418 61.54764,-384.285702 20.51585,-201.211518 41.03173,-384.285698 61.54761,-384.285698 h 40.00002"
             id="path2167"
             transform="scale(0.26458333)"
             inkscape:connector-curvature="0"
             sodipodi:nodetypes="csccssc" />
          <path
             style="fill:none;fill-opacity:1;fill-rule:evenodd;stroke:#0000ff;stroke-width:4.91338587;stroke-linecap:round;stroke-miterlimit:4;stroke-dasharray:none;stroke-dashoffset:0;stroke-opacity:1"
             d="m -1024.1664,-242.28718 c 13.8492,68.56103 27.6983,196.1229 41.54744,331.949698 20.51584,201.211522 41.03172,384.285702 61.5476,384.285702 m 0,0 c 20.51588,0 41.03176,-183.07418 61.54761,-384.285702 20.51588,-201.211518 41.03176,-384.285698 61.54764,-384.285698 h 40.00001"
             id="path2169"
             transform="scale(0.26458333)"
             inkscape:connector-curvature="0"
             sodipodi:nodetypes="csccssc" />
          <path
             style="fill:none;fill-opacity:1;fill-rule:evenodd;stroke:#0000ff;stroke-width:4.91338587;stroke-linecap:round;stroke-miterlimit:4;stroke-dasharray:none;stroke-dashoffset:0;stroke-opacity:1"
             d="m -1105.7142,89.662518 c 20.5159,-201.211518 41.0318,-384.285698 61.5476,-384.285698 h 40"
             id="path2171"
             transform="scale(0.26458333)"
             inkscape:connector-curvature="0"
             sodipodi:nodetypes="csc" />
        </g>
        <path
           inkscape:connector-curvature="0"
           id="path2175"
           d="m -281.97021,23.723207 h -10.58334"
           style="fill:none;stroke:#0000ff;stroke-width:1.29999995;stroke-linecap:butt;stroke-linejoin:miter;stroke-miterlimit:4;stroke-dasharray:none;stroke-opacity:1" />
        <path
           inkscape:connector-curvature="0"
           id="path2177"
           d="M 98.273811,23.723207 H 108.85714"
           style="fill:none;stroke:#0000ff;stroke-width:1.29999995;stroke-linecap:butt;stroke-linejoin:miter;stroke-miterlimit:4;stroke-dasharray:none;stroke-opacity:1" />
      </g>
      <g
         id="g2421">
        <g
           id="g2277">
          <path
             style="fill:#0000ff;fill-opacity:1;fill-rule:evenodd;stroke:none;stroke-width:0;stroke-linecap:round;stroke-linejoin:round;stroke-miterlimit:4;stroke-dasharray:none;stroke-dashoffset:0;stroke-opacity:1"
             d="m 530.96359,88.545453 c 0,-0.846052 -3.4904,-16.700411 -5.78022,-26.255296 -5.19201,-21.665114 -9.68975,-33.83361 -13.55184,-36.664005 -0.78364,-0.574316 -0.96197,-0.588829 -7.23564,-0.588829 h -6.4322 l 0.95441,0.781109 c 3.6475,2.985264 8.09927,15.39816 13.25267,36.952406 1.82665,7.640076 5.77955,25.483493 5.77955,26.088919 0,0.286664 1.15569,0.348576 6.50665,0.348576 h 6.50662 z"
             id="path2181"
             inkscape:connector-curvature="0" />
          <path
             style="fill:#0000ff;fill-opacity:1;fill-rule:evenodd;stroke:none;stroke-width:0;stroke-linecap:round;stroke-linejoin:round;stroke-miterlimit:4;stroke-dasharray:none;stroke-dashoffset:0;stroke-opacity:1"
             d="m 464.89631,153.64105 c 0,-0.12834 -0.20751,-0.29493 -0.46114,-0.3702 -0.73699,-0.21872 -2.91476,-3.61523 -4.29053,-6.69165 -1.66383,-3.72058 -3.88033,-10.28797 -5.73533,-16.9936 -2.64984,-9.57884 -4.41554,-17.23551 -11.80555,-51.192606 -7.17596,-32.973532 -12.74131,-49.949228 -17.2848,-52.722868 -1.02046,-0.622959 -1.1335,-0.632803 -7.2668,-0.632803 h -6.23022 l 0.9548,0.901278 c 4.96754,4.689069 9.7815,20.448855 18.33516,60.02513 9.94925,46.033409 14.53411,61.551489 19.63022,66.441259 l 1.39119,1.33486 6.3815,0.0673 c 3.88916,0.041 6.3815,-0.0239 6.3815,-0.16607 z"
             id="path2183"
             inkscape:connector-curvature="0" />
          <path
             style="fill:#0000ff;fill-opacity:1;fill-rule:evenodd;stroke:none;stroke-width:0;stroke-linecap:round;stroke-linejoin:round;stroke-miterlimit:4;stroke-dasharray:none;stroke-dashoffset:0;stroke-opacity:1"
             d="m 377.48786,152.53277 c -5.0716,-5.31949 -9.5852,-20.71469 -19.44639,-66.328698 -8.74076,-40.431326 -13.71835,-56.455274 -18.75786,-60.38564 l -1.00153,-0.781109 h -6.26373 c -3.44505,0 -6.26373,0.03376 -6.26373,0.07503 0,0.04127 0.4262,0.500917 0.9471,1.021449 4.96925,4.965683 9.84613,21.160804 18.55954,61.632487 5.69741,26.463051 8.78231,39.160701 11.82418,48.669021 3.01028,9.40957 5.94608,15.38756 8.24653,16.79191 1.01986,0.62259 1.13653,0.6328 7.22894,0.6328 h 6.19236 z"
             id="path2185"
             inkscape:connector-curvature="0" />
          <path
             style="fill:#0000ff;fill-opacity:1;fill-rule:evenodd;stroke:none;stroke-width:0;stroke-linecap:round;stroke-linejoin:round;stroke-miterlimit:4;stroke-dasharray:none;stroke-dashoffset:0;stroke-opacity:1"
             d="m 291.3894,152.71652 c -0.64818,-0.62892 -1.82734,-2.38642 -2.62037,-3.90554 -4.53975,-8.69638 -8.42976,-22.96164 -16.58082,-60.804352 C 264.1219,50.557374 259.5358,34.60369 254.95192,28.046582 c -2.18671,-3.128008 -1.81895,-3.009259 -9.31953,-3.009259 h -6.43218 l 0.95438,0.781109 c 1.98749,1.626638 4.72935,7.24843 7.23827,14.841047 2.90975,8.805605 6.06235,21.526838 11.0487,44.583229 8.19801,37.906862 11.58717,50.875562 15.85932,60.686062 1.51615,3.48168 3.37889,6.36066 4.7796,7.38719 0.70686,0.51804 1.04724,0.54406 7.11491,0.54406 h 6.37253 z"
             id="path2187"
             inkscape:connector-curvature="0" />
          <path
             style="fill:#0000ff;fill-opacity:1;fill-rule:evenodd;stroke:none;stroke-width:0;stroke-linecap:round;stroke-linejoin:round;stroke-miterlimit:4;stroke-dasharray:none;stroke-dashoffset:0;stroke-opacity:1"
             d="m 206.13281,153.64105 c 0,-0.12834 -0.20751,-0.29493 -0.46114,-0.3702 -0.73699,-0.21872 -2.91476,-3.61523 -4.29052,-6.69165 -1.66385,-3.72058 -3.88034,-10.28797 -5.73534,-16.9936 -2.64984,-9.57884 -4.41554,-17.23551 -11.80555,-51.192606 -7.17596,-32.973532 -12.74131,-49.949228 -17.2848,-52.722868 -1.02046,-0.622959 -1.1335,-0.632803 -7.2668,-0.632803 h -6.23022 l 0.9548,0.901278 c 4.96754,4.689069 9.7815,20.448855 18.33516,60.02513 9.94925,46.033409 14.53411,61.551489 19.63022,66.441259 l 1.39119,1.33486 6.3815,0.0673 c 3.88916,0.041 6.3815,-0.0239 6.3815,-0.16607 z"
             id="path2189"
             inkscape:connector-curvature="0" />
          <path
             style="fill:#0000ff;fill-opacity:1;fill-rule:evenodd;stroke:none;stroke-width:0;stroke-linecap:round;stroke-linejoin:round;stroke-miterlimit:4;stroke-dasharray:none;stroke-dashoffset:0;stroke-opacity:1"
             d="m 118.72436,152.53277 c -5.0716,-5.31949 -9.5852,-20.71469 -19.446391,-66.328698 C 90.537208,45.772746 85.55962,29.748798 80.520112,25.818432 l -1.001536,-0.781109 h -6.263728 c -3.445051,0 -6.263727,0.03376 -6.263727,0.07503 0,0.04127 0.426195,0.500917 0.947102,1.021449 4.96925,4.965683 9.846129,21.160804 18.55954,61.632487 5.697404,26.463051 8.782306,39.160701 11.824177,48.669021 3.01028,9.40957 5.94608,15.38756 8.24653,16.79191 1.01986,0.62259 1.13653,0.6328 7.22894,0.6328 h 6.19236 z"
             id="path2191"
             inkscape:connector-curvature="0" />
          <path
             style="fill:#0000ff;fill-opacity:1;fill-rule:evenodd;stroke:none;stroke-width:0;stroke-linecap:round;stroke-linejoin:round;stroke-miterlimit:4;stroke-dasharray:none;stroke-dashoffset:0;stroke-opacity:1"
             d="M 32.625904,152.71652 C 27.946662,148.17629 22.43364,130.08231 14.648744,93.714724 l -0.861748,-4.02571 H 7.35542 0.92384365 v 0.672496 c 0,1.960898 6.58782145,30.28603 9.29037935,39.94511 3.558391,12.71787 7.116008,20.82045 10.102761,23.00934 0.706859,0.51804 1.047231,0.54406 7.114905,0.54406 h 6.372528 z"
             id="path2193"
             inkscape:connector-curvature="0" />
        </g>
        <g
           id="g2268"
           style="fill:#00003e;fill-opacity:1">
          <path
             style="fill:#00003e;fill-opacity:1;fill-rule:evenodd;stroke:none;stroke-width:0;stroke-linecap:round;stroke-linejoin:round;stroke-miterlimit:4;stroke-dasharray:none;stroke-dashoffset:0;stroke-opacity:1"
             d="m 468.04194,153.43648 c 4.27256,-2.26705 9.07506,-15.44416 15.08702,-41.39577 0.96461,-4.1639 3.4545,-15.411853 5.53308,-24.995445 5.84074,-26.929496 8.64141,-38.077702 12.10594,-48.188342 2.03978,-5.952739 2.03218,-6.043751 -0.87245,-10.454828 -1.69422,-2.572943 -2.89984,-3.520729 -4.17871,-3.285077 -2.12546,0.391656 -5.04308,5.221689 -7.74197,12.816647 -3.74499,10.538804 -6.76775,22.684909 -14.07641,56.562167 -5.4763,25.383888 -9.56421,41.134828 -12.73173,49.056098 -0.71755,1.79441 -0.70363,1.88307 0.73353,4.67365 1.42678,2.77041 3.70123,5.4187 4.78439,5.57075 0.29537,0.0415 0.90616,-0.12047 1.35731,-0.35985 z"
             id="path2195"
             inkscape:connector-curvature="0" />
          <path
             style="fill:#00003e;fill-opacity:1;fill-rule:evenodd;stroke:none;stroke-width:0;stroke-linecap:round;stroke-linejoin:round;stroke-miterlimit:4;stroke-dasharray:none;stroke-dashoffset:0;stroke-opacity:1"
             d="m 382.23744,153.18943 c 2.64681,-1.78493 5.49889,-7.86459 8.81505,-18.79073 3.04749,-10.04092 5.23486,-19.25696 12.77918,-53.842638 4.86601,-22.307355 7.77155,-33.558923 11.0612,-42.833849 l 1.51064,-4.259142 -1.23979,-2.470402 c -2.30023,-4.583429 -4.28712,-6.427213 -6.13323,-5.691494 -3.9333,1.567513 -8.76273,14.264423 -14.43489,37.950345 -0.9655,4.031718 -3.68059,16.198974 -6.03355,27.038346 -6.62291,30.509804 -9.59931,42.217644 -13.29756,52.306794 l -1.0251,2.79657 1.04418,2.13041 c 1.93556,3.94907 4.01882,6.33638 5.52936,6.33638 0.23656,0 0.87758,-0.30176 1.42451,-0.67059 z"
             id="path2197"
             inkscape:connector-curvature="0" />
          <path
             style="fill:#00003e;fill-opacity:1;fill-rule:evenodd;stroke:none;stroke-width:0;stroke-linecap:round;stroke-linejoin:round;stroke-miterlimit:4;stroke-dasharray:none;stroke-dashoffset:0;stroke-opacity:1"
             d="m 296.13804,153.07892 c 2.82845,-2.21787 5.93313,-9.13629 9.31949,-20.76742 2.63215,-9.04066 5.35015,-20.59428 11.29915,-48.030155 5.18423,-23.908902 8.44534,-36.75332 11.67832,-45.99702 l 1.71333,-4.898735 -1.4313,-2.77918 c -1.54303,-2.996146 -3.76874,-5.448916 -4.94451,-5.448916 -4.35673,0 -9.26495,12.282266 -15.75134,39.415901 -0.6952,2.908124 -3.3009,14.642766 -5.79046,26.076983 -6.3606,29.213402 -8.8101,39.008002 -12.35045,49.384722 -2.03086,5.9524 -2.00105,6.30723 0.88411,10.52323 2.31987,3.38996 3.53691,3.96083 5.37366,2.52059 z"
             id="path2199"
             inkscape:connector-curvature="0" />
          <path
             style="fill:#00003e;fill-opacity:1;fill-rule:evenodd;stroke:none;stroke-width:0;stroke-linecap:round;stroke-linejoin:round;stroke-miterlimit:4;stroke-dasharray:none;stroke-dashoffset:0;stroke-opacity:1"
             d="m 209.27844,153.43648 c 4.27256,-2.26705 9.07506,-15.44416 15.08702,-41.39577 0.96461,-4.1639 3.4545,-15.411853 5.53308,-24.995445 5.84074,-26.929496 8.6414,-38.077702 12.10593,-48.188342 2.03978,-5.952739 2.03219,-6.043751 -0.87243,-10.454828 -1.69424,-2.572943 -2.89985,-3.520729 -4.17871,-3.285077 -2.12547,0.391656 -5.04309,5.221689 -7.74198,12.816647 -3.74499,10.538804 -6.76775,22.684909 -14.07641,56.562167 -5.4763,25.383888 -9.56421,41.134828 -12.73173,49.056098 -0.71755,1.79441 -0.70363,1.88307 0.73353,4.67365 1.42678,2.77041 3.70123,5.4187 4.78439,5.57075 0.29537,0.0415 0.90616,-0.12047 1.35731,-0.35985 z"
             id="path2201"
             inkscape:connector-curvature="0" />
          <path
             style="fill:#00003e;fill-opacity:1;fill-rule:evenodd;stroke:none;stroke-width:0;stroke-linecap:round;stroke-linejoin:round;stroke-miterlimit:4;stroke-dasharray:none;stroke-dashoffset:0;stroke-opacity:1"
             d="m 123.47394,153.18943 c 2.64681,-1.78493 5.49888,-7.86459 8.81505,-18.79073 3.04749,-10.04092 5.23486,-19.25696 12.77918,-53.842638 4.86601,-22.307355 7.77155,-33.558923 11.0612,-42.833849 l 1.51064,-4.259142 -1.23979,-2.470402 c -2.30024,-4.583429 -4.28712,-6.427213 -6.13323,-5.691494 -3.9333,1.567513 -8.76273,14.264423 -14.43489,37.950345 -0.9655,4.031718 -3.68059,16.198974 -6.03355,27.038346 -6.62291,30.509804 -9.59931,42.217644 -13.29756,52.306794 l -1.0251,2.79657 1.04418,2.13041 c 1.93556,3.94907 4.01882,6.33638 5.52936,6.33638 0.23656,0 0.87758,-0.30176 1.42451,-0.67059 z"
             id="path2203"
             inkscape:connector-curvature="0" />
          <path
             style="fill:#00003e;fill-opacity:1;fill-rule:evenodd;stroke:none;stroke-width:0;stroke-linecap:round;stroke-linejoin:round;stroke-miterlimit:4;stroke-dasharray:none;stroke-dashoffset:0;stroke-opacity:1"
             d="m 37.374538,153.07892 c 2.828455,-2.21787 5.933131,-9.13629 9.319487,-20.76742 2.632149,-9.04066 5.350154,-20.59428 11.299153,-48.030155 5.184236,-23.908902 8.445343,-36.75332 11.678319,-45.99702 l 1.713329,-4.898735 -1.431292,-2.77918 c -1.54303,-2.996146 -3.768749,-5.448916 -4.944515,-5.448916 -4.356728,0 -9.264953,12.282266 -15.751339,39.415901 -0.695196,2.908124 -3.300904,14.642766 -5.790462,26.076983 -6.360601,29.213402 -8.8101,39.008002 -12.350451,49.384722 -2.030857,5.9524 -2.001045,6.30723 0.884111,10.52323 2.319866,3.38996 3.536911,3.96083 5.37366,2.52059 z"
             id="path2205"
             inkscape:connector-curvature="0" />
        </g>
      </g>
    </g>
  </g>
</svg>
